<?xml version="1.0" encoding="UTF-8"?>
<?xml-stylesheet href="https://cdnjs.cloudflare.com/ajax/libs/font-awesome/6.7.2/css/all.min.css" type="text/css"?>
<svg id="graph-250" width="100%" xmlns="http://www.w3.org/2000/svg" style="overflow: hidden; max-width: 100%; touch-action: none; user-select: none; -webkit-user-drag: none; -webkit-tap-highlight-color: rgba(0, 0, 0, 0); background-color: rgb(2, 8, 23);" role="graphics-document document" aria-roledescription="sequence" height="100%" xmlns:xlink="http://www.w3.org/1999/xlink" xmlns:ev="http://www.w3.org/2001/xml-events"><defs><symbol id="graph-250-computer" width="24" height="24"><path transform="scale(.5)" d="M2 2v13h20v-13h-20zm18 11h-16v-9h16v9zm-10.228 6l.466-1h3.524l.467 1h-4.457zm14.228 3h-24l2-6h2.104l-1.33 4h18.45l-1.297-4h2.073l2 6zm-5-10h-14v-7h14v7z"></path></symbol></defs><defs><symbol id="graph-250-database" fill-rule="evenodd" clip-rule="evenodd"><path transform="scale(.5)" d="M12.258.001l.256.004.255.005.253.008.251.01.249.012.247.015.246.016.242.019.241.02.239.023.236.024.233.027.231.028.229.031.225.032.223.034.22.036.217.038.214.04.211.041.208.043.205.045.201.046.198.048.194.05.191.051.187.053.183.054.18.056.175.057.172.059.168.06.163.061.16.063.155.064.15.066.074.033.073.033.071.034.07.034.069.035.068.035.067.035.066.035.064.036.064.036.062.036.06.036.06.037.058.037.058.037.055.038.055.038.053.038.052.038.051.039.05.039.048.039.047.039.045.04.044.04.043.04.041.04.04.041.039.041.037.041.036.041.034.041.033.042.032.042.03.042.029.042.027.042.026.043.024.043.023.043.021.043.02.043.018.044.017.043.015.044.013.044.012.044.011.045.009.044.007.045.006.045.004.045.002.045.001.045v17l-.001.045-.002.045-.004.045-.006.045-.007.045-.009.044-.011.045-.012.044-.013.044-.015.044-.017.043-.018.044-.02.043-.021.043-.023.043-.024.043-.026.043-.027.042-.029.042-.03.042-.032.042-.033.042-.034.041-.036.041-.037.041-.039.041-.04.041-.041.04-.043.04-.044.04-.045.04-.047.039-.048.039-.05.039-.051.039-.052.038-.053.038-.055.038-.055.038-.058.037-.058.037-.06.037-.06.036-.062.036-.064.036-.064.036-.066.035-.067.035-.068.035-.069.035-.07.034-.071.034-.073.033-.074.033-.15.066-.155.064-.16.063-.163.061-.168.06-.172.059-.175.057-.18.056-.183.054-.187.053-.191.051-.194.05-.198.048-.201.046-.205.045-.208.043-.211.041-.214.04-.217.038-.22.036-.223.034-.225.032-.229.031-.231.028-.233.027-.236.024-.239.023-.241.02-.242.019-.246.016-.247.015-.249.012-.251.01-.253.008-.255.005-.256.004-.258.001-.258-.001-.256-.004-.255-.005-.253-.008-.251-.01-.249-.012-.247-.015-.245-.016-.243-.019-.241-.02-.238-.023-.236-.024-.234-.027-.231-.028-.228-.031-.226-.032-.223-.034-.22-.036-.217-.038-.214-.04-.211-.041-.208-.043-.204-.045-.201-.046-.198-.048-.195-.05-.19-.051-.187-.053-.184-.054-.179-.056-.176-.057-.172-.059-.167-.06-.164-.061-.159-.063-.155-.064-.151-.066-.074-.033-.072-.033-.072-.034-.07-.034-.069-.035-.068-.035-.067-.035-.066-.035-.064-.036-.063-.036-.062-.036-.061-.036-.06-.037-.058-.037-.057-.037-.056-.038-.055-.038-.053-.038-.052-.038-.051-.039-.049-.039-.049-.039-.046-.039-.046-.04-.044-.04-.043-.04-.041-.04-.04-.041-.039-.041-.037-.041-.036-.041-.034-.041-.033-.042-.032-.042-.03-.042-.029-.042-.027-.042-.026-.043-.024-.043-.023-.043-.021-.043-.02-.043-.018-.044-.017-.043-.015-.044-.013-.044-.012-.044-.011-.045-.009-.044-.007-.045-.006-.045-.004-.045-.002-.045-.001-.045v-17l.001-.045.002-.045.004-.045.006-.045.007-.045.009-.044.011-.045.012-.044.013-.044.015-.044.017-.043.018-.044.02-.043.021-.043.023-.043.024-.043.026-.043.027-.042.029-.042.03-.042.032-.042.033-.042.034-.041.036-.041.037-.041.039-.041.04-.041.041-.04.043-.04.044-.04.046-.04.046-.039.049-.039.049-.039.051-.039.052-.038.053-.038.055-.038.056-.038.057-.037.058-.037.06-.037.061-.036.062-.036.063-.036.064-.036.066-.035.067-.035.068-.035.069-.035.07-.034.072-.034.072-.033.074-.033.151-.066.155-.064.159-.063.164-.061.167-.06.172-.059.176-.057.179-.056.184-.054.187-.053.19-.051.195-.05.198-.048.201-.046.204-.045.208-.043.211-.041.214-.04.217-.038.22-.036.223-.034.226-.032.228-.031.231-.028.234-.027.236-.024.238-.023.241-.02.243-.019.245-.016.247-.015.249-.012.251-.01.253-.008.255-.005.256-.004.258-.001.258.001zm-9.258 20.499v.01l.001.021.003.021.004.022.005.021.006.022.007.022.009.023.01.022.011.023.012.023.013.023.015.023.016.024.017.023.018.024.019.024.021.024.022.025.023.024.024.025.052.049.056.05.061.051.066.051.07.051.075.051.079.052.084.052.088.052.092.052.097.052.102.051.105.052.11.052.114.051.119.051.123.051.127.05.131.05.135.05.139.048.144.049.147.047.152.047.155.047.16.045.163.045.167.043.171.043.176.041.178.041.183.039.187.039.19.037.194.035.197.035.202.033.204.031.209.03.212.029.216.027.219.025.222.024.226.021.23.02.233.018.236.016.24.015.243.012.246.01.249.008.253.005.256.004.259.001.26-.001.257-.004.254-.005.25-.008.247-.011.244-.012.241-.014.237-.016.233-.018.231-.021.226-.021.224-.024.22-.026.216-.027.212-.028.21-.031.205-.031.202-.034.198-.034.194-.036.191-.037.187-.039.183-.04.179-.04.175-.042.172-.043.168-.044.163-.045.16-.046.155-.046.152-.047.148-.048.143-.049.139-.049.136-.05.131-.05.126-.05.123-.051.118-.052.114-.051.11-.052.106-.052.101-.052.096-.052.092-.052.088-.053.083-.051.079-.052.074-.052.07-.051.065-.051.06-.051.056-.05.051-.05.023-.024.023-.025.021-.024.02-.024.019-.024.018-.024.017-.024.015-.023.014-.024.013-.023.012-.023.01-.023.01-.022.008-.022.006-.022.006-.022.004-.022.004-.021.001-.021.001-.021v-4.127l-.077.055-.08.053-.083.054-.085.053-.087.052-.09.052-.093.051-.095.05-.097.05-.1.049-.102.049-.105.048-.106.047-.109.047-.111.046-.114.045-.115.045-.118.044-.12.043-.122.042-.124.042-.126.041-.128.04-.13.04-.132.038-.134.038-.135.037-.138.037-.139.035-.142.035-.143.034-.144.033-.147.032-.148.031-.15.03-.151.03-.153.029-.154.027-.156.027-.158.026-.159.025-.161.024-.162.023-.163.022-.165.021-.166.02-.167.019-.169.018-.169.017-.171.016-.173.015-.173.014-.175.013-.175.012-.177.011-.178.01-.179.008-.179.008-.181.006-.182.005-.182.004-.184.003-.184.002h-.37l-.184-.002-.184-.003-.182-.004-.182-.005-.181-.006-.179-.008-.179-.008-.178-.01-.176-.011-.176-.012-.175-.013-.173-.014-.172-.015-.171-.016-.17-.017-.169-.018-.167-.019-.166-.02-.165-.021-.163-.022-.162-.023-.161-.024-.159-.025-.157-.026-.156-.027-.155-.027-.153-.029-.151-.03-.15-.03-.148-.031-.146-.032-.145-.033-.143-.034-.141-.035-.14-.035-.137-.037-.136-.037-.134-.038-.132-.038-.13-.04-.128-.04-.126-.041-.124-.042-.122-.042-.12-.044-.117-.043-.116-.045-.113-.045-.112-.046-.109-.047-.106-.047-.105-.048-.102-.049-.1-.049-.097-.05-.095-.05-.093-.052-.09-.051-.087-.052-.085-.053-.083-.054-.08-.054-.077-.054v4.127zm0-5.654v.011l.001.021.003.021.004.021.005.022.006.022.007.022.009.022.01.022.011.023.012.023.013.023.015.024.016.023.017.024.018.024.019.024.021.024.022.024.023.025.024.024.052.05.056.05.061.05.066.051.07.051.075.052.079.051.084.052.088.052.092.052.097.052.102.052.105.052.11.051.114.051.119.052.123.05.127.051.131.05.135.049.139.049.144.048.147.048.152.047.155.046.16.045.163.045.167.044.171.042.176.042.178.04.183.04.187.038.19.037.194.036.197.034.202.033.204.032.209.03.212.028.216.027.219.025.222.024.226.022.23.02.233.018.236.016.24.014.243.012.246.01.249.008.253.006.256.003.259.001.26-.001.257-.003.254-.006.25-.008.247-.01.244-.012.241-.015.237-.016.233-.018.231-.02.226-.022.224-.024.22-.025.216-.027.212-.029.21-.03.205-.032.202-.033.198-.035.194-.036.191-.037.187-.039.183-.039.179-.041.175-.042.172-.043.168-.044.163-.045.16-.045.155-.047.152-.047.148-.048.143-.048.139-.05.136-.049.131-.05.126-.051.123-.051.118-.051.114-.052.11-.052.106-.052.101-.052.096-.052.092-.052.088-.052.083-.052.079-.052.074-.051.07-.052.065-.051.06-.05.056-.051.051-.049.023-.025.023-.024.021-.025.02-.024.019-.024.018-.024.017-.024.015-.023.014-.023.013-.024.012-.022.01-.023.01-.023.008-.022.006-.022.006-.022.004-.021.004-.022.001-.021.001-.021v-4.139l-.077.054-.08.054-.083.054-.085.052-.087.053-.09.051-.093.051-.095.051-.097.05-.1.049-.102.049-.105.048-.106.047-.109.047-.111.046-.114.045-.115.044-.118.044-.12.044-.122.042-.124.042-.126.041-.128.04-.13.039-.132.039-.134.038-.135.037-.138.036-.139.036-.142.035-.143.033-.144.033-.147.033-.148.031-.15.03-.151.03-.153.028-.154.028-.156.027-.158.026-.159.025-.161.024-.162.023-.163.022-.165.021-.166.02-.167.019-.169.018-.169.017-.171.016-.173.015-.173.014-.175.013-.175.012-.177.011-.178.009-.179.009-.179.007-.181.007-.182.005-.182.004-.184.003-.184.002h-.37l-.184-.002-.184-.003-.182-.004-.182-.005-.181-.007-.179-.007-.179-.009-.178-.009-.176-.011-.176-.012-.175-.013-.173-.014-.172-.015-.171-.016-.17-.017-.169-.018-.167-.019-.166-.02-.165-.021-.163-.022-.162-.023-.161-.024-.159-.025-.157-.026-.156-.027-.155-.028-.153-.028-.151-.03-.15-.03-.148-.031-.146-.033-.145-.033-.143-.033-.141-.035-.14-.036-.137-.036-.136-.037-.134-.038-.132-.039-.13-.039-.128-.04-.126-.041-.124-.042-.122-.043-.12-.043-.117-.044-.116-.044-.113-.046-.112-.046-.109-.046-.106-.047-.105-.048-.102-.049-.1-.049-.097-.05-.095-.051-.093-.051-.09-.051-.087-.053-.085-.052-.083-.054-.08-.054-.077-.054v4.139zm0-5.666v.011l.001.02.003.022.004.021.005.022.006.021.007.022.009.023.01.022.011.023.012.023.013.023.015.023.016.024.017.024.018.023.019.024.021.025.022.024.023.024.024.025.052.05.056.05.061.05.066.051.07.051.075.052.079.051.084.052.088.052.092.052.097.052.102.052.105.051.11.052.114.051.119.051.123.051.127.05.131.05.135.05.139.049.144.048.147.048.152.047.155.046.16.045.163.045.167.043.171.043.176.042.178.04.183.04.187.038.19.037.194.036.197.034.202.033.204.032.209.03.212.028.216.027.219.025.222.024.226.021.23.02.233.018.236.017.24.014.243.012.246.01.249.008.253.006.256.003.259.001.26-.001.257-.003.254-.006.25-.008.247-.01.244-.013.241-.014.237-.016.233-.018.231-.02.226-.022.224-.024.22-.025.216-.027.212-.029.21-.03.205-.032.202-.033.198-.035.194-.036.191-.037.187-.039.183-.039.179-.041.175-.042.172-.043.168-.044.163-.045.16-.045.155-.047.152-.047.148-.048.143-.049.139-.049.136-.049.131-.051.126-.05.123-.051.118-.052.114-.051.11-.052.106-.052.101-.052.096-.052.092-.052.088-.052.083-.052.079-.052.074-.052.07-.051.065-.051.06-.051.056-.05.051-.049.023-.025.023-.025.021-.024.02-.024.019-.024.018-.024.017-.024.015-.023.014-.024.013-.023.012-.023.01-.022.01-.023.008-.022.006-.022.006-.022.004-.022.004-.021.001-.021.001-.021v-4.153l-.077.054-.08.054-.083.053-.085.053-.087.053-.09.051-.093.051-.095.051-.097.05-.1.049-.102.048-.105.048-.106.048-.109.046-.111.046-.114.046-.115.044-.118.044-.12.043-.122.043-.124.042-.126.041-.128.04-.13.039-.132.039-.134.038-.135.037-.138.036-.139.036-.142.034-.143.034-.144.033-.147.032-.148.032-.15.03-.151.03-.153.028-.154.028-.156.027-.158.026-.159.024-.161.024-.162.023-.163.023-.165.021-.166.02-.167.019-.169.018-.169.017-.171.016-.173.015-.173.014-.175.013-.175.012-.177.01-.178.01-.179.009-.179.007-.181.006-.182.006-.182.004-.184.003-.184.001-.185.001-.185-.001-.184-.001-.184-.003-.182-.004-.182-.006-.181-.006-.179-.007-.179-.009-.178-.01-.176-.01-.176-.012-.175-.013-.173-.014-.172-.015-.171-.016-.17-.017-.169-.018-.167-.019-.166-.02-.165-.021-.163-.023-.162-.023-.161-.024-.159-.024-.157-.026-.156-.027-.155-.028-.153-.028-.151-.03-.15-.03-.148-.032-.146-.032-.145-.033-.143-.034-.141-.034-.14-.036-.137-.036-.136-.037-.134-.038-.132-.039-.13-.039-.128-.041-.126-.041-.124-.041-.122-.043-.12-.043-.117-.044-.116-.044-.113-.046-.112-.046-.109-.046-.106-.048-.105-.048-.102-.048-.1-.05-.097-.049-.095-.051-.093-.051-.09-.052-.087-.052-.085-.053-.083-.053-.08-.054-.077-.054v4.153zm8.74-8.179l-.257.004-.254.005-.25.008-.247.011-.244.012-.241.014-.237.016-.233.018-.231.021-.226.022-.224.023-.22.026-.216.027-.212.028-.21.031-.205.032-.202.033-.198.034-.194.036-.191.038-.187.038-.183.04-.179.041-.175.042-.172.043-.168.043-.163.045-.16.046-.155.046-.152.048-.148.048-.143.048-.139.049-.136.05-.131.05-.126.051-.123.051-.118.051-.114.052-.11.052-.106.052-.101.052-.096.052-.092.052-.088.052-.083.052-.079.052-.074.051-.07.052-.065.051-.06.05-.056.05-.051.05-.023.025-.023.024-.021.024-.02.025-.019.024-.018.024-.017.023-.015.024-.014.023-.013.023-.012.023-.01.023-.01.022-.008.022-.006.023-.006.021-.004.022-.004.021-.001.021-.001.021.001.021.001.021.004.021.004.022.006.021.006.023.008.022.01.022.01.023.012.023.013.023.014.023.015.024.017.023.018.024.019.024.02.025.021.024.023.024.023.025.051.05.056.05.06.05.065.051.07.052.074.051.079.052.083.052.088.052.092.052.096.052.101.052.106.052.11.052.114.052.118.051.123.051.126.051.131.05.136.05.139.049.143.048.148.048.152.048.155.046.16.046.163.045.168.043.172.043.175.042.179.041.183.04.187.038.191.038.194.036.198.034.202.033.205.032.21.031.212.028.216.027.22.026.224.023.226.022.231.021.233.018.237.016.241.014.244.012.247.011.25.008.254.005.257.004.26.001.26-.001.257-.004.254-.005.25-.008.247-.011.244-.012.241-.014.237-.016.233-.018.231-.021.226-.022.224-.023.22-.026.216-.027.212-.028.21-.031.205-.032.202-.033.198-.034.194-.036.191-.038.187-.038.183-.04.179-.041.175-.042.172-.043.168-.043.163-.045.16-.046.155-.046.152-.048.148-.048.143-.048.139-.049.136-.05.131-.05.126-.051.123-.051.118-.051.114-.052.11-.052.106-.052.101-.052.096-.052.092-.052.088-.052.083-.052.079-.052.074-.051.07-.052.065-.051.06-.05.056-.05.051-.05.023-.025.023-.024.021-.024.02-.025.019-.024.018-.024.017-.023.015-.024.014-.023.013-.023.012-.023.01-.023.01-.022.008-.022.006-.023.006-.021.004-.022.004-.021.001-.021.001-.021-.001-.021-.001-.021-.004-.021-.004-.022-.006-.021-.006-.023-.008-.022-.01-.022-.01-.023-.012-.023-.013-.023-.014-.023-.015-.024-.017-.023-.018-.024-.019-.024-.02-.025-.021-.024-.023-.024-.023-.025-.051-.05-.056-.05-.06-.05-.065-.051-.07-.052-.074-.051-.079-.052-.083-.052-.088-.052-.092-.052-.096-.052-.101-.052-.106-.052-.11-.052-.114-.052-.118-.051-.123-.051-.126-.051-.131-.05-.136-.05-.139-.049-.143-.048-.148-.048-.152-.048-.155-.046-.16-.046-.163-.045-.168-.043-.172-.043-.175-.042-.179-.041-.183-.04-.187-.038-.191-.038-.194-.036-.198-.034-.202-.033-.205-.032-.21-.031-.212-.028-.216-.027-.22-.026-.224-.023-.226-.022-.231-.021-.233-.018-.237-.016-.241-.014-.244-.012-.247-.011-.25-.008-.254-.005-.257-.004-.26-.001-.26.001z"></path></symbol></defs><defs><symbol id="graph-250-clock" width="24" height="24"><path transform="scale(.5)" d="M12 2c5.514 0 10 4.486 10 10s-4.486 10-10 10-10-4.486-10-10 4.486-10 10-10zm0-2c-6.627 0-12 5.373-12 12s5.373 12 12 12 12-5.373 12-12-5.373-12-12-12zm5.848 12.459c.202.038.202.333.001.372-1.907.361-6.045 1.111-6.547 1.111-.719 0-1.301-.582-1.301-1.301 0-.512.77-5.447 1.125-7.445.034-.192.312-.181.343.014l.985 6.238 5.394 1.011z"></path></symbol></defs><defs><marker id="graph-250-arrowhead" refX="7.9" refY="5" markerUnits="userSpaceOnUse" markerWidth="12" markerHeight="12" orient="auto-start-reverse"><path d="M -1 0 L 10 5 L 0 10 z"></path></marker></defs><defs><marker id="graph-250-crosshead" markerWidth="15" markerHeight="8" orient="auto" refX="4" refY="4.5"><path fill="none" stroke="#000000" stroke-width="1pt" d="M 1,2 L 6,7 M 6,2 L 1,7" style="stroke-dasharray: 0, 0;"></path></marker></defs><defs><marker id="graph-250-filled-head" refX="15.5" refY="7" markerWidth="20" markerHeight="28" orient="auto"><path d="M 18,7 L9,13 L14,7 L9,1 Z"></path></marker></defs><defs><marker id="graph-250-sequencenumber" refX="15" refY="15" markerWidth="60" markerHeight="40" orient="auto"><circle cx="15" cy="15" r="6"></circle></marker></defs><defs><marker id="graph-250-solidTopArrowHead" refX="7.9" refY="7.25" markerUnits="userSpaceOnUse" markerWidth="12" markerHeight="12" orient="auto-start-reverse"><path d="M 0 0 L 10 8 L 0 8 z"></path></marker></defs><defs><marker id="graph-250-solidBottomArrowHead" refX="7.9" refY="0.75" markerUnits="userSpaceOnUse" markerWidth="12" markerHeight="12" orient="auto-start-reverse"><path d="M 0 0 L 10 0 L 0 8 z"></path></marker></defs><defs><marker id="graph-250-stickTopArrowHead" refX="7.5" refY="7" markerUnits="userSpaceOnUse" markerWidth="12" markerHeight="12" orient="auto-start-reverse"><path d="M 0 0 L 7 7" stroke="black" stroke-width="1.5" fill="none"></path></marker></defs><defs><marker id="graph-250-stickBottomArrowHead" refX="7.5" refY="0" markerUnits="userSpaceOnUse" markerWidth="12" markerHeight="12" orient="auto-start-reverse"><path d="M 0 7 L 7 0" stroke="black" stroke-width="1.5" fill="none"></path></marker></defs><g id="viewport-20260703093606244" class="svg-pan-zoom_viewport" transform="matrix(0.32864265745918225,0,0,0.32864265745918225,224.13441636625748,57.262537718424376)" style="transform: matrix(0.328643, 0, 0, 0.328643, 224.134, 57.2625);"><g><rect x="-20" y="-5" fill="white" stroke="rgb(0,0,0, 0.5)" width="2021" height="1484" class="rect"></rect></g><g><rect x="1780" y="1394" fill="#eaeaea" stroke="#666" width="196" height="65" name="Fact" rx="3" ry="3" class="actor actor-bottom"></rect><text x="1878" y="1426.5" dominant-baseline="central" alignment-baseline="central" class="actor actor-box" style="text-anchor: middle; font-size: 16px; font-weight: 400;"><tspan x="1878" dy="0">Success/Error Factory</tspan></text></g><g><rect x="1580" y="1394" fill="#eaeaea" stroke="#666" width="150" height="65" name="AdminServ" rx="3" ry="3" class="actor actor-bottom"></rect><text x="1655" y="1426.5" dominant-baseline="central" alignment-baseline="central" class="actor actor-box" style="text-anchor: middle; font-size: 16px; font-weight: 400;"><tspan x="1655" dy="0">AdminService</tspan></text></g><g><rect x="1380" y="1394" fill="#eaeaea" stroke="#666" width="150" height="65" name="DAO" rx="3" ry="3" class="actor actor-bottom"></rect><text x="1455" y="1426.5" dominant-baseline="central" alignment-baseline="central" class="actor actor-box" style="text-anchor: middle; font-size: 16px; font-weight: 400;"><tspan x="1455" dy="0">AdminDAO</tspan></text></g><g><rect x="1097" y="1394" fill="#eaeaea" stroke="#666" width="150" height="65" name="Serv" rx="3" ry="3" class="actor actor-bottom"></rect><text x="1172" y="1426.5" dominant-baseline="central" alignment-baseline="central" class="actor actor-box" style="text-anchor: middle; font-size: 16px; font-weight: 400;"><tspan x="1172" dy="0">AuthService</tspan></text></g><g><rect x="708" y="1394" fill="#eaeaea" stroke="#666" width="150" height="65" name="Ctrl" rx="3" ry="3" class="actor actor-bottom"></rect><text x="783" y="1426.5" dominant-baseline="central" alignment-baseline="central" class="actor actor-box" style="text-anchor: middle; font-size: 16px; font-weight: 400;"><tspan x="783" dy="0">AuthController</tspan></text></g><g><rect x="443.5" y="1394" fill="#eaeaea" stroke="#666" width="194" height="65" name="Router" rx="3" ry="3" class="actor actor-bottom"></rect><text x="540.5" y="1426.5" dominant-baseline="central" alignment-baseline="central" class="actor actor-box" style="text-anchor: middle; font-size: 16px; font-weight: 400;"><tspan x="540.5" dy="0">Express Router (Auth)</tspan></text></g><g></g><g><line id="actor1462" x1="1878" y1="75" x2="1878" y2="1394" class="actor-line 200" stroke-width="0.5px" stroke="#999" name="Fact" data-et="life-line" data-id="Fact"></line><g id="root-1462" data-et="participant" data-type="participant" data-id="Fact"><rect x="1780" y="10" fill="#eaeaea" stroke="#666" width="196" height="65" name="Fact" rx="3" ry="3" class="actor actor-top"></rect><text x="1878" y="42.5" dominant-baseline="central" alignment-baseline="central" class="actor actor-box" style="text-anchor: middle; font-size: 16px; font-weight: 400;"><tspan x="1878" dy="0">Success/Error Factory</tspan></text></g></g><g><line id="actor1461" x1="1655" y1="75" x2="1655" y2="1394" class="actor-line 200" stroke-width="0.5px" stroke="#999" name="AdminServ" data-et="life-line" data-id="AdminServ"></line><g id="root-1461" data-et="participant" data-type="participant" data-id="AdminServ"><rect x="1580" y="10" fill="#eaeaea" stroke="#666" width="150" height="65" name="AdminServ" rx="3" ry="3" class="actor actor-top"></rect><text x="1655" y="42.5" dominant-baseline="central" alignment-baseline="central" class="actor actor-box" style="text-anchor: middle; font-size: 16px; font-weight: 400;"><tspan x="1655" dy="0">AdminService</tspan></text></g></g><g><line id="actor1460" x1="1455" y1="75" x2="1455" y2="1394" class="actor-line 200" stroke-width="0.5px" stroke="#999" name="DAO" data-et="life-line" data-id="DAO"></line><g id="root-1460" data-et="participant" data-type="participant" data-id="DAO"><rect x="1380" y="10" fill="#eaeaea" stroke="#666" width="150" height="65" name="DAO" rx="3" ry="3" class="actor actor-top"></rect><text x="1455" y="42.5" dominant-baseline="central" alignment-baseline="central" class="actor actor-box" style="text-anchor: middle; font-size: 16px; font-weight: 400;"><tspan x="1455" dy="0">AdminDAO</tspan></text></g></g><g><line id="actor1459" x1="1172" y1="75" x2="1172" y2="1394" class="actor-line 200" stroke-width="0.5px" stroke="#999" name="Serv" data-et="life-line" data-id="Serv"></line><g id="root-1459" data-et="participant" data-type="participant" data-id="Serv"><rect x="1097" y="10" fill="#eaeaea" stroke="#666" width="150" height="65" name="Serv" rx="3" ry="3" class="actor actor-top"></rect><text x="1172" y="42.5" dominant-baseline="central" alignment-baseline="central" class="actor actor-box" style="text-anchor: middle; font-size: 16px; font-weight: 400;"><tspan x="1172" dy="0">AuthService</tspan></text></g></g><g><line id="actor1458" x1="783" y1="75" x2="783" y2="1394" class="actor-line 200" stroke-width="0.5px" stroke="#999" name="Ctrl" data-et="life-line" data-id="Ctrl"></line><g id="root-1458" data-et="participant" data-type="participant" data-id="Ctrl"><rect x="708" y="10" fill="#eaeaea" stroke="#666" width="150" height="65" name="Ctrl" rx="3" ry="3" class="actor actor-top"></rect><text x="783" y="42.5" dominant-baseline="central" alignment-baseline="central" class="actor actor-box" style="text-anchor: middle; font-size: 16px; font-weight: 400;"><tspan x="783" dy="0">AuthController</tspan></text></g></g><g><line id="actor1457" x1="540.5" y1="75" x2="540.5" y2="1394" class="actor-line 200" stroke-width="0.5px" stroke="#999" name="Router" data-et="life-line" data-id="Router"></line><g id="root-1457" data-et="participant" data-type="participant" data-id="Router"><rect x="443.5" y="10" fill="#eaeaea" stroke="#666" width="194" height="65" name="Router" rx="3" ry="3" class="actor actor-top"></rect><text x="540.5" y="42.5" dominant-baseline="central" alignment-baseline="central" class="actor actor-box" style="text-anchor: middle; font-size: 16px; font-weight: 400;"><tspan x="540.5" dy="0">Express Router (Auth)</tspan></text></g></g><g><line id="actor1456" x1="116.5" y1="90" x2="116.5" y2="1394" class="actor-line 200" stroke-width="0.5px" stroke="#999" name="Utente" data-et="life-line" data-id="Utente"></line></g><style>#graph-250{font-family:"trebuchet ms",verdana,arial,sans-serif;font-size:16px;fill:#eee;}@keyframes edge-animation-frame{from{stroke-dashoffset:0;}}@keyframes dash{to{stroke-dashoffset:0;}}#graph-250 .edge-animation-slow{stroke-dasharray:9,5!important;stroke-dashoffset:900;animation:dash 50s linear infinite;stroke-linecap:round;}#graph-250 .edge-animation-fast{stroke-dasharray:9,5!important;stroke-dashoffset:900;animation:dash 20s linear infinite;stroke-linecap:round;}#graph-250 .error-icon{fill:hsl(220.5882352941, 100%, 98.3333333333%);}#graph-250 .error-text{fill:rgb(8.5000000002, 5.7500000001, 0);stroke:rgb(8.5000000002, 5.7500000001, 0);}#graph-250 .edge-thickness-normal{stroke-width:1px;}#graph-250 .edge-thickness-thick{stroke-width:3.5px;}#graph-250 .edge-pattern-solid{stroke-dasharray:0;}#graph-250 .edge-thickness-invisible{stroke-width:0;fill:none;}#graph-250 .edge-pattern-dashed{stroke-dasharray:3;}#graph-250 .edge-pattern-dotted{stroke-dasharray:2;}#graph-250 .marker{fill:#0b0b0b;stroke:#0b0b0b;}#graph-250 .marker.cross{stroke:#0b0b0b;}#graph-250 svg{font-family:"trebuchet ms",verdana,arial,sans-serif;font-size:16px;}#graph-250 p{margin:0;}#graph-250 .actor{stroke:#000000;fill:#ff0000;stroke-width:1;}#graph-250 rect.actor.outer-path[data-look="neo"]{filter:drop-shadow( 1px 2px 2px rgba(185,185,185,1));}#graph-250 rect.note[data-look="neo"]{stroke:#e50000;fill:#ff4d5c;filter:drop-shadow( 1px 2px 2px rgba(185,185,185,1));}#graph-250 text.actor&gt;tspan{fill:#000000;stroke:none;}#graph-250 .actor-line{stroke:#000000;}#graph-250 .innerArc{stroke-width:1.5;stroke-dasharray:none;}#graph-250 .messageLine0{stroke-width:1.5;stroke-dasharray:none;stroke:#000000;}#graph-250 .messageLine1{stroke-width:1.5;stroke-dasharray:2,2;stroke:#000000;}#graph-250 [id$="-arrowhead"] path{fill:#000000;stroke:#000000;}#graph-250 .sequenceNumber{fill:#f4f4f4;}#graph-250 [id$="-sequencenumber"]{fill:#000000;}#graph-250 [id$="-crosshead"] path{fill:#000000;stroke:#000000;}#graph-250 .messageText{fill:#000000;stroke:none;}#graph-250 .labelBox{stroke:#000000;fill:#d61125;filter:none;}#graph-250 .labelText,#graph-250 .labelText&gt;tspan{fill:#000000;stroke:none;}#graph-250 .loopText,#graph-250 .loopText&gt;tspan{fill:#000000;stroke:none;}#graph-250 .loopLine{stroke-width:2px;stroke-dasharray:2,2;stroke:#000000;fill:#000000;}#graph-250 .note{stroke:#e50000;fill:#ff4d5c;}#graph-250 .noteText,#graph-250 .noteText&gt;tspan{fill:#000000;stroke:none;font-weight:normal;}#graph-250 .activation0{fill:#0000ff;stroke:#000000;}#graph-250 .activation1{fill:#0000ff;stroke:#000000;}#graph-250 .activation2{fill:#0000ff;stroke:#000000;}#graph-250 .actorPopupMenu{position:absolute;}#graph-250 .actorPopupMenuPanel{position:absolute;fill:#ff0000;box-shadow:0px 8px 16px 0px rgba(0,0,0,0.2);filter:drop-shadow(3px 5px 2px rgb(0 0 0 / 0.4));}#graph-250 .actor-man circle,#graph-250 line{fill:#ff0000;stroke-width:2px;}#graph-250 g rect.rect{filter:drop-shadow( 1px 2px 2px rgba(185,185,185,1));stroke:hsl(40.5882352941, 60%, 100%);}#graph-250 .node .neo-node{stroke:hsl(40.5882352941, 60%, 100%);}#graph-250 [data-look="neo"].node rect,#graph-250 [data-look="neo"].cluster rect,#graph-250 [data-look="neo"].node polygon{stroke:url(#graph-250-gradient);filter:drop-shadow( 1px 2px 2px rgba(185,185,185,1));}#graph-250 [data-look="neo"].node path{stroke:url(#graph-250-gradient);stroke-width:1px;}#graph-250 [data-look="neo"].node .outer-path{filter:drop-shadow( 1px 2px 2px rgba(185,185,185,1));}#graph-250 [data-look="neo"].node .neo-line path{stroke:hsl(40.5882352941, 60%, 100%);filter:none;}#graph-250 [data-look="neo"].node circle{stroke:url(#graph-250-gradient);filter:drop-shadow( 1px 2px 2px rgba(185,185,185,1));}#graph-250 [data-look="neo"].node circle .state-start{fill:#000000;}#graph-250 [data-look="neo"].icon-shape .icon{fill:url(#graph-250-gradient);filter:drop-shadow( 1px 2px 2px rgba(185,185,185,1));}#graph-250 [data-look="neo"].icon-shape .icon-neo path{stroke:url(#graph-250-gradient);filter:drop-shadow( 1px 2px 2px rgba(185,185,185,1));}#graph-250 :root{--mermaid-font-family:"trebuchet ms",verdana,arial,sans-serif;}</style><g></g><g><rect x="778" y="173" fill="#EDF2AE" stroke="#666" width="10" height="1201" class="activation0"></rect></g><g data-et="note" data-id="i4"><rect x="708" y="181" fill="#EDF2AE" stroke="#666" width="150" height="38" class="note"></rect><text x="783" y="186" text-anchor="middle" dominant-baseline="middle" alignment-baseline="middle" class="noteText" dy="1em" style="font-size: 16px; font-weight: 400;"><tspan x="783">try block start</tspan></text></g><g><rect x="1167" y="269" fill="#EDF2AE" stroke="#666" width="10" height="666" class="activation0"></rect></g><g data-et="control-structure" data-id="i12"><line x1="768" y1="373" x2="1889" y2="373" class="loopLine"></line><line x1="1889" y1="373" x2="1889" y2="514" class="loopLine"></line><line x1="768" y1="514" x2="1889" y2="514" class="loopLine"></line><line x1="768" y1="373" x2="768" y2="514" class="loopLine"></line><polygon points="768,373 818,373 818,386 809.6,393 768,393" class="labelBox"></polygon><text x="793" y="386" text-anchor="middle" dominant-baseline="middle" alignment-baseline="middle" class="labelText" style="font-size: 16px; font-weight: 400;">alt</text><text x="1353.5" y="391" text-anchor="middle" class="loopText" style="font-size: 16px; font-weight: 400;"><tspan x="1353.5">[L'email esiste già]</tspan></text></g><g data-et="control-structure" data-id="i18"><line x1="768" y1="620" x2="1889" y2="620" class="loopLine"></line><line x1="1889" y1="620" x2="1889" y2="761" class="loopLine"></line><line x1="768" y1="761" x2="1889" y2="761" class="loopLine"></line><line x1="768" y1="620" x2="768" y2="761" class="loopLine"></line><polygon points="768,620 818,620 818,633 809.6,640 768,640" class="labelBox"></polygon><text x="793" y="633" text-anchor="middle" dominant-baseline="middle" alignment-baseline="middle" class="labelText" style="font-size: 16px; font-weight: 400;">alt</text><text x="1353.5" y="638" text-anchor="middle" class="loopText" style="font-size: 16px; font-weight: 400;"><tspan x="1353.5">[L'username esiste già]</tspan></text></g><g data-et="note" data-id="i20"><rect x="1039.5" y="849" fill="#EDF2AE" stroke="#666" width="265" height="38" class="note"></rect><text x="1172" y="854" text-anchor="middle" dominant-baseline="middle" alignment-baseline="middle" class="noteText" dy="1em" style="font-size: 16px; font-weight: 400;"><tspan x="1172">bcrypt.hash con 12 salt rounds</tspan></text></g><g><rect x="1650" y="985" fill="#EDF2AE" stroke="#666" width="10" height="94" class="activation0"></rect></g><g data-et="note" data-id="i25"><rect x="1510.5" y="993" fill="#EDF2AE" stroke="#666" width="289" height="38" class="note"></rect><text x="1655" y="998" text-anchor="middle" dominant-baseline="middle" alignment-baseline="middle" class="noteText" dy="1em" style="font-size: 16px; font-weight: 400;"><tspan x="1655">Salva l'utente nel DB tramite DAO</tspan></text></g><g data-et="note" data-id="i32"><rect x="590.5" y="1278" fill="#EDF2AE" stroke="#666" width="385" height="38" class="note"></rect><text x="783" y="1283" text-anchor="middle" dominant-baseline="middle" alignment-baseline="middle" class="noteText" dy="1em" style="font-size: 16px; font-weight: 400;"><tspan x="783">Se viene lanciato un errore in qualsiasi punto</tspan></text></g><g data-et="control-structure" data-id="i34"><line x1="105.5" y1="1233" x2="985.5" y2="1233" class="loopLine"></line><line x1="985.5" y1="1233" x2="985.5" y2="1374" class="loopLine"></line><line x1="105.5" y1="1374" x2="985.5" y2="1374" class="loopLine"></line><line x1="105.5" y1="1233" x2="105.5" y2="1374" class="loopLine"></line><polygon points="105.5,1233 155.5,1233 155.5,1246 147.1,1253 105.5,1253" class="labelBox"></polygon><text x="131" y="1246" text-anchor="middle" dominant-baseline="middle" alignment-baseline="middle" class="labelText" style="font-size: 16px; font-weight: 400;">alt</text><text x="570.5" y="1251" text-anchor="middle" class="loopText" style="font-size: 16px; font-weight: 400;"><tspan x="570.5">[catch (err)]</tspan></text></g><g class="actor-man actor-top" name="Utente" data-et="participant" data-type="actor" data-id="Utente" style="stroke: rgb(0, 0, 0);"><line id="actor-man-torso1456" x1="116.5" y1="35" x2="116.5" y2="55"></line><line id="actor-man-arms1456" x1="98.5" y1="43" x2="134.5" y2="43"></line><line x1="98.5" y1="70" x2="116.5" y2="55"></line><line x1="116.5" y1="55" x2="132.5" y2="70"></line><circle cx="116.5" cy="20" r="15" width="223" height="65"></circle><text x="116.5" y="77.5" dominant-baseline="central" alignment-baseline="central" class="actor actor-man" style="text-anchor: middle; font-size: 16px; font-weight: 400;"><tspan x="116.5" dy="0">Client (Browser/Postman)</tspan></text></g><text x="327" y="90" text-anchor="middle" dominant-baseline="middle" alignment-baseline="middle" class="messageText" dy="1em" style="font-size: 16px; font-weight: 400;">POST /register {username, email, password}</text><line x1="123.5" y1="123" x2="536.5" y2="123" class="messageLine0" data-et="message" data-id="i1" data-from="Utente" data-to="Router" stroke-width="2" stroke="none" marker-end="url(#graph-250-arrowhead)" style="fill: none;"></line><line x1="116.5" y1="123" x2="116.5" y2="123" stroke-width="0" marker-start="url(#graph-250-sequencenumber)"></line><text x="116.5" y="127" font-family="sans-serif" font-size="12px" text-anchor="middle" class="sequenceNumber">1</text><text x="660" y="138" text-anchor="middle" dominant-baseline="middle" alignment-baseline="middle" class="messageText" dy="1em" style="font-size: 16px; font-weight: 400;">register(req, res)</text><line x1="547.5" y1="171" x2="779" y2="171" class="messageLine0" data-et="message" data-id="i2" data-from="Router" data-to="Ctrl" stroke-width="2" stroke="none" marker-end="url(#graph-250-arrowhead)" style="fill: none;"></line><line x1="540.5" y1="171" x2="540.5" y2="171" stroke-width="0" marker-start="url(#graph-250-sequencenumber)"></line><text x="540.5" y="175" font-family="sans-serif" font-size="12px" text-anchor="middle" class="sequenceNumber">2</text><text x="978" y="234" text-anchor="middle" dominant-baseline="middle" alignment-baseline="middle" class="messageText" dy="1em" style="font-size: 16px; font-weight: 400;">register(email, username, password)</text><line x1="794" y1="267" x2="1168" y2="267" class="messageLine0" data-et="message" data-id="i5" data-from="Ctrl" data-to="Serv" stroke-width="2" stroke="none" marker-end="url(#graph-250-arrowhead)" style="fill: none;"></line><line x1="779" y1="267" x2="779" y2="267" stroke-width="0" marker-start="url(#graph-250-sequencenumber)"></line><text x="779" y="271" font-family="sans-serif" font-size="12px" text-anchor="middle" class="sequenceNumber">3</text><text x="1314" y="282" text-anchor="middle" dominant-baseline="middle" alignment-baseline="middle" class="messageText" dy="1em" style="font-size: 16px; font-weight: 400;">getByEmail(email)</text><line x1="1183" y1="315" x2="1451" y2="315" class="messageLine0" data-et="message" data-id="i7" data-from="Serv" data-to="DAO" stroke-width="2" stroke="none" marker-end="url(#graph-250-arrowhead)" style="fill: none;"></line><line x1="1168" y1="315" x2="1168" y2="315" stroke-width="0" marker-start="url(#graph-250-sequencenumber)"></line><text x="1168" y="319" font-family="sans-serif" font-size="12px" text-anchor="middle" class="sequenceNumber">4</text><text x="1317" y="330" text-anchor="middle" dominant-baseline="middle" alignment-baseline="middle" class="messageText" dy="1em" style="font-size: 16px; font-weight: 400;">restituisce User o null</text><line x1="1460" y1="363" x2="1180" y2="363" class="messageLine1" data-et="message" data-id="i8" data-from="DAO" data-to="Serv" stroke-width="2" stroke="none" marker-end="url(#graph-250-arrowhead)" style="stroke-dasharray: 3, 3; fill: none;"></line><line x1="1455" y1="363" x2="1455" y2="363" stroke-width="0" marker-start="url(#graph-250-sequencenumber)"></line><text x="1455" y="367" font-family="sans-serif" font-size="12px" text-anchor="middle" class="sequenceNumber">5</text><text x="1526" y="423" text-anchor="middle" dominant-baseline="middle" alignment-baseline="middle" class="messageText" dy="1em" style="font-size: 16px; font-weight: 400;">getError(EMAIL_ALREADY_EXISTS)</text><line x1="1183" y1="456" x2="1874" y2="456" class="messageLine0" data-et="message" data-id="i10" data-from="Serv" data-to="Fact" stroke-width="2" stroke="none" marker-end="url(#graph-250-arrowhead)" style="fill: none;"></line><line x1="1168" y1="456" x2="1168" y2="456" stroke-width="0" marker-start="url(#graph-250-sequencenumber)"></line><text x="1168" y="460" font-family="sans-serif" font-size="12px" text-anchor="middle" class="sequenceNumber">6</text><text x="979" y="471" text-anchor="middle" dominant-baseline="middle" alignment-baseline="middle" class="messageText" dy="1em" style="font-size: 16px; font-weight: 400;">lancia AppError</text><line x1="1173" y1="504" x2="791" y2="504" class="messageLine1" data-et="message" data-id="i11" data-from="Serv" data-to="Ctrl" stroke-width="2" stroke="none" marker-end="url(#graph-250-arrowhead)" style="stroke-dasharray: 3, 3; fill: none;"></line><line x1="1176" y1="504" x2="1176" y2="504" stroke-width="0" marker-start="url(#graph-250-sequencenumber)"></line><text x="1176" y="508" font-family="sans-serif" font-size="12px" text-anchor="middle" class="sequenceNumber">7</text><text x="1314" y="529" text-anchor="middle" dominant-baseline="middle" alignment-baseline="middle" class="messageText" dy="1em" style="font-size: 16px; font-weight: 400;">getByUsername(username)</text><line x1="1183" y1="562" x2="1451" y2="562" class="messageLine0" data-et="message" data-id="i13" data-from="Serv" data-to="DAO" stroke-width="2" stroke="none" marker-end="url(#graph-250-arrowhead)" style="fill: none;"></line><line x1="1168" y1="562" x2="1168" y2="562" stroke-width="0" marker-start="url(#graph-250-sequencenumber)"></line><text x="1168" y="566" font-family="sans-serif" font-size="12px" text-anchor="middle" class="sequenceNumber">8</text><text x="1317" y="577" text-anchor="middle" dominant-baseline="middle" alignment-baseline="middle" class="messageText" dy="1em" style="font-size: 16px; font-weight: 400;">restituisce User o null</text><line x1="1460" y1="610" x2="1180" y2="610" class="messageLine1" data-et="message" data-id="i14" data-from="DAO" data-to="Serv" stroke-width="2" stroke="none" marker-end="url(#graph-250-arrowhead)" style="stroke-dasharray: 3, 3; fill: none;"></line><line x1="1455" y1="610" x2="1455" y2="610" stroke-width="0" marker-start="url(#graph-250-sequencenumber)"></line><text x="1455" y="614" font-family="sans-serif" font-size="12px" text-anchor="middle" class="sequenceNumber">9</text><text x="1526" y="670" text-anchor="middle" dominant-baseline="middle" alignment-baseline="middle" class="messageText" dy="1em" style="font-size: 16px; font-weight: 400;">getError(USERNAME_ALREADY_EXISTS)</text><line x1="1183" y1="703" x2="1874" y2="703" class="messageLine0" data-et="message" data-id="i16" data-from="Serv" data-to="Fact" stroke-width="2" stroke="none" marker-end="url(#graph-250-arrowhead)" style="fill: none;"></line><line x1="1168" y1="703" x2="1168" y2="703" stroke-width="0" marker-start="url(#graph-250-sequencenumber)"></line><text x="1168" y="707" font-family="sans-serif" font-size="12px" text-anchor="middle" class="sequenceNumber">10</text><text x="979" y="718" text-anchor="middle" dominant-baseline="middle" alignment-baseline="middle" class="messageText" dy="1em" style="font-size: 16px; font-weight: 400;">lancia AppError</text><line x1="1173" y1="751" x2="791" y2="751" class="messageLine1" data-et="message" data-id="i17" data-from="Serv" data-to="Ctrl" stroke-width="2" stroke="none" marker-end="url(#graph-250-arrowhead)" style="stroke-dasharray: 3, 3; fill: none;"></line><line x1="1176" y1="751" x2="1176" y2="751" stroke-width="0" marker-start="url(#graph-250-sequencenumber)"></line><text x="1176" y="755" font-family="sans-serif" font-size="12px" text-anchor="middle" class="sequenceNumber">11</text><text x="1177" y="776" text-anchor="middle" dominant-baseline="middle" alignment-baseline="middle" class="messageText" dy="1em" style="font-size: 16px; font-weight: 400;">hashPassword(password)</text><path d="M 1177,809 C 1237,799 1237,839 1177,829" class="messageLine0" data-et="message" data-id="i19" data-from="Serv" data-to="Serv" stroke-width="2" stroke="none" marker-end="url(#graph-250-arrowhead)" x1="1183" style="fill: none;"></path><line x1="1168" y1="809" x2="1168" y2="809" stroke-width="0" marker-start="url(#graph-250-sequencenumber)"></line><text x="1168" y="813" font-family="sans-serif" font-size="12px" text-anchor="middle" class="sequenceNumber">12</text><text x="979" y="902" text-anchor="middle" dominant-baseline="middle" alignment-baseline="middle" class="messageText" dy="1em" style="font-size: 16px; font-weight: 400;">restituisce userInfo (UserCreationData)</text><line x1="1173" y1="935" x2="791" y2="935" class="messageLine1" data-et="message" data-id="i21" data-from="Serv" data-to="Ctrl" stroke-width="2" stroke="none" marker-end="url(#graph-250-arrowhead)" style="stroke-dasharray: 3, 3; fill: none;"></line><line x1="1176" y1="935" x2="1176" y2="935" stroke-width="0" marker-start="url(#graph-250-sequencenumber)"></line><text x="1176" y="939" font-family="sans-serif" font-size="12px" text-anchor="middle" class="sequenceNumber">13</text><text x="1220" y="950" text-anchor="middle" dominant-baseline="middle" alignment-baseline="middle" class="messageText" dy="1em" style="font-size: 16px; font-weight: 400;">createUtente(newUser)</text><line x1="794" y1="983" x2="1651" y2="983" class="messageLine0" data-et="message" data-id="i23" data-from="Ctrl" data-to="AdminServ" stroke-width="2" stroke="none" marker-end="url(#graph-250-arrowhead)" style="fill: none;"></line><line x1="779" y1="983" x2="779" y2="983" stroke-width="0" marker-start="url(#graph-250-sequencenumber)"></line><text x="779" y="987" font-family="sans-serif" font-size="12px" text-anchor="middle" class="sequenceNumber">14</text><text x="1221" y="1046" text-anchor="middle" dominant-baseline="middle" alignment-baseline="middle" class="messageText" dy="1em" style="font-size: 16px; font-weight: 400;">Utente creato con successo</text><line x1="1656" y1="1079" x2="791" y2="1079" class="messageLine1" data-et="message" data-id="i26" data-from="AdminServ" data-to="Ctrl" stroke-width="2" stroke="none" marker-end="url(#graph-250-arrowhead)" style="stroke-dasharray: 3, 3; fill: none;"></line><line x1="1659" y1="1079" x2="1659" y2="1079" stroke-width="0" marker-start="url(#graph-250-sequencenumber)"></line><text x="1659" y="1083" font-family="sans-serif" font-size="12px" text-anchor="middle" class="sequenceNumber">15</text><text x="1331" y="1094" text-anchor="middle" dominant-baseline="middle" alignment-baseline="middle" class="messageText" dy="1em" style="font-size: 16px; font-weight: 400;">getSuccess(USER_REGISTERED, responseData)</text><line x1="794" y1="1127" x2="1874" y2="1127" class="messageLine0" data-et="message" data-id="i28" data-from="Ctrl" data-to="Fact" stroke-width="2" stroke="none" marker-end="url(#graph-250-arrowhead)" style="fill: none;"></line><line x1="779" y1="1127" x2="779" y2="1127" stroke-width="0" marker-start="url(#graph-250-sequencenumber)"></line><text x="779" y="1131" font-family="sans-serif" font-size="12px" text-anchor="middle" class="sequenceNumber">16</text><text x="1334" y="1142" text-anchor="middle" dominant-baseline="middle" alignment-baseline="middle" class="messageText" dy="1em" style="font-size: 16px; font-weight: 400;">Oggetto di successo</text><line x1="1883" y1="1175" x2="791" y2="1175" class="messageLine1" data-et="message" data-id="i29" data-from="Fact" data-to="Ctrl" stroke-width="2" stroke="none" marker-end="url(#graph-250-arrowhead)" style="stroke-dasharray: 3, 3; fill: none;"></line><line x1="1878" y1="1175" x2="1878" y2="1175" stroke-width="0" marker-start="url(#graph-250-sequencenumber)"></line><text x="1878" y="1179" font-family="sans-serif" font-size="12px" text-anchor="middle" class="sequenceNumber">17</text><text x="449" y="1190" text-anchor="middle" dominant-baseline="middle" alignment-baseline="middle" class="messageText" dy="1em" style="font-size: 16px; font-weight: 400;">res.send(success JSON)</text><line x1="784" y1="1223" x2="120.5" y2="1223" class="messageLine0" data-et="message" data-id="i30" data-from="Ctrl" data-to="Utente" stroke-width="2" stroke="none" marker-end="url(#graph-250-arrowhead)" style="fill: none;"></line><line x1="787" y1="1223" x2="787" y2="1223" stroke-width="0" marker-start="url(#graph-250-sequencenumber)"></line><text x="787" y="1227" font-family="sans-serif" font-size="12px" text-anchor="middle" class="sequenceNumber">18</text><text x="449" y="1331" text-anchor="middle" dominant-baseline="middle" alignment-baseline="middle" class="messageText" dy="1em" style="font-size: 16px; font-weight: 400;">res.send(ErrorFactory.getError o err.send)</text><line x1="784" y1="1364" x2="120.5" y2="1364" class="messageLine0" data-et="message" data-id="i33" data-from="Ctrl" data-to="Utente" stroke-width="2" stroke="none" marker-end="url(#graph-250-arrowhead)" style="fill: none;"></line><line x1="787" y1="1364" x2="787" y2="1364" stroke-width="0" marker-start="url(#graph-250-sequencenumber)"></line><text x="787" y="1368" font-family="sans-serif" font-size="12px" text-anchor="middle" class="sequenceNumber">19</text><g class="actor-man actor-bottom" name="Utente" style="stroke: rgb(0, 0, 0);"><line id="actor-man-torso1462" x1="116.5" y1="1419" x2="116.5" y2="1439"></line><line id="actor-man-arms1462" x1="98.5" y1="1427" x2="134.5" y2="1427"></line><line x1="98.5" y1="1454" x2="116.5" y2="1439"></line><line x1="116.5" y1="1439" x2="132.5" y2="1454"></line><circle cx="116.5" cy="1404" r="15" width="223" height="65"></circle><text x="116.5" y="1461.5" dominant-baseline="central" alignment-baseline="central" class="actor actor-man" style="text-anchor: middle; font-size: 16px; font-weight: 400;"><tspan x="116.5" dy="0">Client (Browser/Postman)</tspan></text></g></g></svg>